<svg width="355" height="15" viewBox="0 0 355 15" fill="none" xmlns="http://www.w3.org/2000/svg">
<g opacity="0.3">
<path fill-rule="evenodd" clip-rule="evenodd" d="M5.61644 12.747L0.287671 7.74232C0.0958904 7.56476 0 7.36747 0 7.13729C0.00684932 6.90711 0.0958904 6.69666 0.287671 6.52568L5.61644 1.52756C5.76712 1.38287 5.9589 1.30396 6.18493 1.30396C6.63699 1.30396 7 1.64593 7 2.07998C7 2.29043 6.90411 2.4943 6.74657 2.64556L1.95205 7.13071L6.74657 11.629C6.90411 11.7803 7 11.9776 7 12.1946C7 12.6286 6.63699 12.9706 6.18493 12.9706C5.9589 12.9706 5.76712 12.8917 5.61644 12.747Z" fill="white"/>
</g>
<path fill-rule="evenodd" clip-rule="evenodd" d="M349.384 12.747L354.712 7.74232C354.904 7.56476 355 7.36747 355 7.13729C354.993 6.90711 354.904 6.69666 354.712 6.52568L349.384 1.52756C349.233 1.38287 349.041 1.30396 348.815 1.30396C348.363 1.30396 348 1.64593 348 2.07998C348 2.29043 348.096 2.4943 348.253 2.64556L353.048 7.13071L348.253 11.629C348.096 11.7803 348 11.9776 348 12.1946C348 12.6286 348.363 12.9706 348.815 12.9706C349.041 12.9706 349.233 12.8917 349.384 12.747Z" fill="white"/>
</svg>
