<svg width="8" height="13" viewBox="0 0 8 13" fill="none" xmlns="http://www.w3.org/2000/svg">
<path fill-rule="evenodd" clip-rule="evenodd" d="M1.42305 0.729989L6.90406 5.87768C7.10132 6.06032 7.19995 6.26325 7.19995 6.5C7.19291 6.73675 7.10132 6.95321 6.90406 7.12909L1.42304 12.27C1.26805 12.4188 1.07079 12.5 0.838308 12.5C0.373338 12.5 -4.7653e-05 12.1483 -4.76139e-05 11.7018C-4.7595e-05 11.4853 0.0985829 11.2756 0.260618 11.1201L5.19212 6.50676L0.260619 1.87993C0.0985837 1.72435 -4.67239e-05 1.52142 -4.67044e-05 1.2982C-4.66654e-05 0.851748 0.373339 0.5 0.838309 0.5C1.07079 0.5 1.26806 0.581172 1.42305 0.729989Z" fill="white"/>
</svg>
