<svg width="14" height="14" viewBox="0 0 14 14" fill="none" xmlns="http://www.w3.org/2000/svg">
<rect width="14" height="14" rx="7" fill="white"/>
<path d="M7.35247 4.72455C6.85214 4.72455 6.46181 4.93036 6.18148 5.34198C5.90115 5.75006 5.76099 6.31426 5.76099 7.0346C5.76099 8.53205 6.33051 9.28077 7.46957 9.28077C7.81377 9.28077 8.14733 9.23287 8.47023 9.13706C8.79314 9.04125 9.11783 8.92593 9.44429 8.79108V10.5689C8.79492 10.8563 8.06039 11 7.24069 11C6.06615 11 5.16485 10.6593 4.53677 9.97804C3.91224 9.29674 3.59998 8.31204 3.59998 7.02395C3.59998 6.21845 3.75079 5.51053 4.0524 4.9002C4.35757 4.28986 4.79403 3.82147 5.36179 3.49501C5.93309 3.165 6.60375 3 7.37376 3C8.21475 3 9.01847 3.18275 9.78494 3.54824L9.14089 5.20359C8.85347 5.06875 8.56604 4.9552 8.27862 4.86294C7.99119 4.77068 7.68248 4.72455 7.35247 4.72455Z" fill="black"/>
</svg>
