<svg width="15" height="15" viewBox="0 0 15 15" fill="none" xmlns="http://www.w3.org/2000/svg">
<rect width="15" height="15" rx="7.5" fill="white"/>
<path d="M8.22156 4.94012C7.65868 4.94012 7.21956 5.17166 6.90419 5.63473C6.58882 6.09381 6.43114 6.72854 6.43114 7.53892C6.43114 9.22355 7.07186 10.0659 8.35329 10.0659C8.74052 10.0659 9.11577 10.012 9.47904 9.90419C9.84232 9.79641 10.2076 9.66667 10.5749 9.51497V11.515C9.84431 11.8383 9.01796 12 8.09581 12C6.77445 12 5.76048 11.6168 5.05389 10.8503C4.3513 10.0838 4 8.97605 4 7.52695C4 6.62076 4.16966 5.82435 4.50898 5.13772C4.8523 4.4511 5.34331 3.92415 5.98204 3.55689C6.62475 3.18563 7.37924 3 8.24551 3C9.19162 3 10.0958 3.20559 10.9581 3.61677L10.2335 5.47904C9.91018 5.32735 9.58683 5.1996 9.26347 5.09581C8.94012 4.99202 8.59281 4.94012 8.22156 4.94012Z" fill="black"/>
</svg>
