<svg width="15" height="15" viewBox="0 0 15 15" fill="none" xmlns="http://www.w3.org/2000/svg">
<circle cx="7.5" cy="7.5" r="7.5" fill="white"/>
<path d="M6.66 4.0186C6.65982 3.84406 6.71903 3.67421 6.82868 3.53473C6.93833 3.39526 7.09246 3.29374 7.26776 3.24554C7.44305 3.19734 7.62998 3.20507 7.80028 3.26757C7.97058 3.33007 8.11498 3.44393 8.21164 3.59194L10.4686 5.75176C10.5465 5.82641 10.6084 5.91503 10.6505 6.01255C10.6927 6.11007 10.7144 6.21458 10.7143 6.32012C10.7143 6.42566 10.6925 6.53016 10.6503 6.62765C10.6081 6.72514 10.5462 6.81372 10.4682 6.88832C10.3901 6.96292 10.2975 7.02208 10.1956 7.06244C10.0937 7.10279 9.98452 7.12354 9.87424 7.1235C9.76395 7.12347 9.65476 7.10264 9.55288 7.06222C9.45101 7.0218 9.35845 6.96257 9.28049 6.88791L8.34011 5.98719V12.0536C8.34011 12.2667 8.25164 12.4711 8.09418 12.6218C7.93672 12.7725 7.72316 12.8571 7.50047 12.8571C7.27779 12.8571 7.06422 12.7725 6.90676 12.6218C6.7493 12.4711 6.66084 12.2667 6.66084 12.0536L6.66 4.0186Z" fill="#04B500"/>
<path d="M8.34011 4.01867C8.34029 3.84412 8.28108 3.67427 8.17143 3.53479C8.06177 3.39532 7.90765 3.2938 7.73235 3.2456C7.55705 3.1974 7.37012 3.20513 7.19983 3.26763C7.02953 3.33013 6.88513 3.44399 6.78846 3.592L4.53153 5.75183C4.37409 5.9026 4.28569 6.10704 4.28577 6.32019C4.28585 6.53333 4.3744 6.73772 4.53195 6.88838C4.6895 7.03905 4.90314 7.12365 5.12587 7.12357C5.3486 7.1235 5.56217 7.03875 5.71961 6.88798L6.66 5.98725L6.66084 12.0536C6.66084 12.2667 6.7493 12.4711 6.90676 12.6218C7.06422 12.7725 7.27779 12.8571 7.50047 12.8571C7.72316 12.8571 7.93672 12.7725 8.09418 12.6218C8.25164 12.4711 8.34011 12.2667 8.34011 12.0536L8.34011 4.01867Z" fill="#04B500"/>
</svg>
