<svg width="14" height="14" viewBox="0 0 14 14" fill="none" xmlns="http://www.w3.org/2000/svg">
<circle cx="7" cy="7" r="7" fill="white"/>
<path d="M6.21595 3.75069C6.21578 3.58779 6.27104 3.42926 6.37339 3.29908C6.47573 3.1689 6.61958 3.07415 6.78319 3.02916C6.9468 2.98418 7.12127 2.99139 7.28021 3.04973C7.43916 3.10806 7.57393 3.21433 7.66415 3.35247L9.77062 5.36831C9.84338 5.43798 9.90108 5.52069 9.94044 5.61171C9.9798 5.70273 10 5.80027 10 5.89878C9.99996 5.99728 9.97965 6.09481 9.94023 6.1858C9.90081 6.27679 9.84304 6.35946 9.77023 6.42909C9.69742 6.49872 9.61099 6.55394 9.51588 6.5916C9.42077 6.62927 9.31884 6.64863 9.21591 6.6486C9.11298 6.64856 9.01106 6.62913 8.91597 6.5914C8.82089 6.55367 8.7345 6.49839 8.66175 6.42872L7.78405 5.58804V11.2501C7.78405 11.449 7.70149 11.6397 7.55452 11.7803C7.40756 11.921 7.20823 12 7.00039 12C6.79255 12 6.59323 11.921 6.44626 11.7803C6.2993 11.6397 6.21673 11.449 6.21673 11.2501L6.21595 3.75069Z" fill="#04B500"/>
<path d="M7.78405 3.75075C7.78422 3.58785 7.72896 3.42932 7.62662 3.29914C7.52427 3.16896 7.38042 3.07421 7.21681 3.02922C7.0532 2.98423 6.87873 2.99145 6.71979 3.04978C6.56085 3.10811 6.42607 3.21439 6.33585 3.35253L4.22938 5.36837C4.08244 5.50909 3.99993 5.6999 4 5.89884C4.00007 6.09777 4.08272 6.28854 4.22977 6.42915C4.37682 6.56977 4.57621 6.64873 4.78409 6.64866C4.99197 6.64859 5.19131 6.5695 5.33825 6.42878L6.21595 5.5881L6.21673 11.2501C6.21673 11.449 6.2993 11.6397 6.44626 11.7803C6.59323 11.921 6.79255 12 7.00039 12C7.20823 12 7.40756 11.921 7.55452 11.7803C7.70149 11.6397 7.78405 11.449 7.78405 11.2501L7.78405 3.75075Z" fill="#04B500"/>
</svg>
