<svg width="15" height="15" viewBox="0 0 15 15" fill="none" xmlns="http://www.w3.org/2000/svg">
<circle cx="7.5" cy="7.5" r="7.5" fill="white"/>
<path d="M8.24566 3.63018C8.24553 3.49201 8.29038 3.35755 8.37345 3.24715C8.45651 3.13674 8.57327 3.05638 8.70606 3.01822C8.83886 2.98006 8.98046 2.98618 9.10947 3.03566C9.23847 3.08513 9.34786 3.17527 9.42109 3.29243L11.1308 5.00214C11.1899 5.06124 11.2367 5.13138 11.2686 5.20858C11.3006 5.28578 11.317 5.36851 11.317 5.45205C11.3169 5.5356 11.3005 5.61832 11.2685 5.69549C11.2365 5.77267 11.1896 5.84278 11.1305 5.90184C11.0714 5.96089 11.0012 6.00773 10.924 6.03967C10.8468 6.07161 10.7641 6.08804 10.6806 6.08801C10.597 6.08798 10.5143 6.0715 10.4371 6.0395C10.36 6.0075 10.2898 5.96061 10.2308 5.90152L9.5184 5.1885V9.9907C9.5184 10.1594 9.45139 10.3212 9.33211 10.4405C9.21283 10.5597 9.05104 10.6268 8.88235 10.6268C8.71366 10.6268 8.55188 10.5597 8.4326 10.4405C8.31331 10.3212 8.2463 10.1594 8.2463 9.9907L8.24566 3.63018Z" fill="#D91A2B"/>
<path d="M6.99391 10.6357C6.99405 10.7739 6.9492 10.9084 6.86613 11.0188C6.78307 11.1292 6.66631 11.2095 6.53352 11.2477C6.40072 11.2859 6.25912 11.2797 6.13011 11.2303C6.00111 11.1808 5.89172 11.0907 5.81849 10.9735L4.10878 9.26378C3.98952 9.14443 3.92255 8.98259 3.92261 8.81386C3.92267 8.64514 3.98975 8.48335 4.1091 8.36408C4.22845 8.24482 4.39029 8.17785 4.55901 8.17791C4.72774 8.17797 4.88953 8.24505 5.0088 8.3644L5.72117 9.07741V4.27522C5.72117 4.10653 5.78819 3.94474 5.90747 3.82546C6.02675 3.70618 6.18854 3.63917 6.35723 3.63917C6.52592 3.63917 6.6877 3.70618 6.80698 3.82546C6.92627 3.94474 6.99328 4.10653 6.99328 4.27522L6.99391 10.6357Z" fill="#D91A2B"/>
</svg>
