<svg width="15" height="15" viewBox="0 0 15 15" fill="none" xmlns="http://www.w3.org/2000/svg">
<circle cx="7.29" cy="7.29" r="7.29" fill="white"/>
<path d="M8.01476 3.52853C8.01462 3.39423 8.05822 3.26354 8.13896 3.15623C8.2197 3.04891 8.33319 2.9708 8.46226 2.93371C8.59134 2.89662 8.72898 2.90257 8.85437 2.95066C8.97977 2.99875 9.08609 3.08636 9.15727 3.20024L10.8191 4.86208C10.8765 4.91952 10.922 4.98771 10.9531 5.06274C10.9841 5.13778 11.0001 5.21819 11.0001 5.2994C11 5.3806 10.984 5.46101 10.9529 5.53602C10.9218 5.61103 10.8762 5.67919 10.8188 5.73659C10.7614 5.79399 10.6932 5.83951 10.6181 5.87056C10.5431 5.90161 10.4627 5.91758 10.3815 5.91755C10.3003 5.91752 10.2199 5.9015 10.1449 5.87039C10.0698 5.83929 10.0017 5.79372 9.94429 5.73628L9.25186 5.04323V9.71096C9.25186 9.87493 9.18672 10.0322 9.07078 10.1481C8.95484 10.2641 8.79758 10.3292 8.63362 10.3292C8.46965 10.3292 8.3124 10.2641 8.19645 10.1481C8.08051 10.0322 8.01537 9.87493 8.01537 9.71096L8.01476 3.52853Z" fill="#D91A2B"/>
<path d="M6.79805 10.3379C6.79819 10.4722 6.75459 10.6029 6.67385 10.7102C6.59311 10.8176 6.47962 10.8957 6.35055 10.9328C6.22147 10.9699 6.08383 10.9639 5.95844 10.9158C5.83304 10.8677 5.72672 10.7801 5.65554 10.6662L3.99371 9.00439C3.87778 8.88838 3.81269 8.73108 3.81274 8.56708C3.8128 8.40307 3.87801 8.24581 3.99401 8.12989C4.11002 8.01396 4.26733 7.94887 4.43133 7.94893C4.59533 7.94898 4.75259 8.01419 4.86852 8.1302L5.56095 8.82325V4.15551C5.56095 3.99155 5.62609 3.83429 5.74203 3.71835C5.85797 3.60241 6.01523 3.53727 6.17919 3.53727C6.34316 3.53727 6.50041 3.60241 6.61636 3.71835C6.7323 3.83429 6.79744 3.99155 6.79744 4.15551L6.79805 10.3379Z" fill="#D91A2B"/>
</svg>
