<svg width="38" height="36" viewBox="0 0 38 36" fill="none" xmlns="http://www.w3.org/2000/svg">
<path d="M35 20.4473C33.185 22.7125 29.8289 23.3069 29.4436 23.1532C29.0684 22.9995 27.8923 20.8266 27.8619 20.7548C27.4867 28.9032 28.4195 33.6778 28.4195 33.6778C27.8821 34.1288 27.1622 34.4363 26.3511 34.631C25.6717 34.8053 24.9214 34.8975 24.161 34.9488C23.5019 34.9898 22.8226 35 22.1736 35C21.4943 34.9897 20.8352 34.9693 20.2471 34.9488C19.7807 34.9385 19.365 34.918 19 34.918C18.9189 34.918 18.8378 34.918 18.7567 34.918C18.4221 34.918 18.0469 34.9385 17.6413 34.9488C17.0431 34.9693 16.3942 34.9898 15.7047 34.9898C15.0355 35 14.346 34.9795 13.6667 34.9283C13.2003 34.8975 12.744 34.836 12.308 34.7643C11.7199 34.6618 11.1521 34.5183 10.6654 34.303C10.2598 34.139 9.88467 33.9238 9.58048 33.6676C9.58048 33.6676 10.5133 28.8929 10.1382 20.7446C10.0976 20.8163 8.93156 22.979 8.5564 23.143C8.1711 23.2967 4.81496 22.7022 3 20.4371C3 20.4371 4.73384 17.8747 6.29531 13.5392C7.66413 9.74686 11.7199 9.68537 14.2446 7.89171C14.6096 7.63547 14.9341 7.33823 15.218 7C15.218 7 15.7554 7.082 16.5868 7.15374C17.2459 7.21524 18.0875 7.26649 19 7.26649C21.0887 7.26649 22.782 7 22.782 7C25.0634 9.75711 30.1432 9.21389 31.7047 13.5494C33.2662 17.8747 35 20.4473 35 20.4473Z" fill="black" fill-opacity="0.4"/>
<path d="M22.782 7C22.782 7 21.0887 7.26649 19 7.26649C18.0875 7.26649 17.2459 7.21524 16.5868 7.15374C15.7554 7.082 15.218 7 15.218 7C14.9341 7.33823 14.6096 7.63547 14.2446 7.89171C11.7199 9.68537 7.66413 9.74686 6.29531 13.5392C4.73384 17.8747 3 20.4371 3 20.4371C4.81496 22.7022 8.1711 23.2967 8.5564 23.143C8.93156 22.979 10.0976 20.8163 10.1382 20.7446C10.5133 28.8929 9.58048 33.6676 9.58048 33.6676C9.88466 33.9238 10.2598 34.139 10.6654 34.303C11.1521 34.5183 11.7199 34.6618 12.308 34.7643C12.744 34.836 13.2003 34.8975 13.6667 34.9283C14.346 34.9795 15.0355 35 15.7047 34.9898C16.3942 34.9898 17.0431 34.9693 17.6413 34.9488C18.0469 34.9385 18.4221 34.918 18.7567 34.918C18.8378 34.918 18.9189 34.918 19 34.918C19.365 34.918 19.7807 34.9385 20.2471 34.9488C20.8352 34.9693 21.4943 34.9898 22.1736 35C22.8226 35 23.5019 34.9898 24.161 34.9488C24.9214 34.8975 25.6717 34.8053 26.3511 34.631C27.1622 34.4363 27.8821 34.1288 28.4195 33.6778C28.4195 33.6778 27.4867 28.9032 27.8619 20.7548C27.8923 20.8266 29.0684 22.9995 29.4436 23.1532C29.8289 23.3069 33.185 22.7125 35 20.4473C35 20.4473 33.2662 17.8747 31.7047 13.5494C30.1432 9.21389 25.0634 9.75711 22.782 7ZM22.782 7C22.7804 7.04111 22.7783 7.08526 22.7759 7.13171C22.7887 7.08831 22.8002 7.04685 22.8104 7.00754C22.9897 7.31828 23.5042 7.71964 23.739 7.88148L22.17 12.5101L20.4729 11.1183L19 10.827M19 10.827L17.527 10.0825C16.8095 9.82246 16.2571 9.20738 15.8642 8.56413C18.0039 7.91345 19.58 7.80622 22.1553 8.53196C21.7613 9.18678 21.2025 9.81813 20.4729 10.0825L19 10.827ZM19 10.827L17.527 11.1183L15.83 12.5101L14.261 7.88148C14.4958 7.71964 15.0102 7.31828 15.1896 7.00754C15.1928 7.01991 15.1961 7.03248 15.1996 7.04527L15.1977 7.00007" stroke="white" stroke-opacity="0.5" stroke-width="0.5" stroke-linejoin="round"/>
<path d="M19.5714 22V25H18.4286V22H15V21H18.4286V18H19.5714V21H23V22H19.5714Z" fill="#FFD037"/>
</svg>
