<svg width="41" height="38" viewBox="0 0 41 38" fill="none" xmlns="http://www.w3.org/2000/svg">
<g clip-path="url(#clip0_1_48970)">
<path d="M40.9101 17.9332C38.5905 20.7971 34.3013 21.5487 33.8088 21.3543C33.3294 21.1599 31.8262 18.4127 31.7873 18.322C31.3078 28.624 32.5 34.6607 32.5 34.6607C31.8132 35.2309 30.8932 35.6196 29.8565 35.8658C28.9883 36.0861 28.0293 36.2028 27.0574 36.2675C26.2151 36.3194 25.3469 36.3323 24.5176 36.3323C23.6493 36.3194 22.807 36.2935 22.0554 36.2675C21.4593 36.2546 20.928 36.2287 20.4615 36.2287C20.3579 36.2287 20.2542 36.2287 20.1505 36.2287C19.7229 36.2287 19.2434 36.2546 18.7251 36.2675C17.9605 36.2935 17.1312 36.3194 16.25 36.3194C15.3947 36.3323 14.5136 36.3064 13.6453 36.2416C13.0492 36.2028 12.4661 36.125 11.9089 36.0343C11.1573 35.9047 10.4316 35.7233 9.8096 35.4512C9.29126 35.2438 8.81179 34.9717 8.42304 34.6477C8.42304 34.6477 9.61522 28.6111 9.13576 18.309C9.08392 18.3997 7.59369 21.134 7.11422 21.3413C6.6218 21.5357 2.33252 20.7841 0.0129395 17.9203C0.0129395 17.9203 2.22885 14.6806 4.22447 9.19918C5.97387 4.40452 11.1573 4.32676 14.384 2.05902C14.8505 1.73505 15.2651 1.35926 15.628 0.931625C15.628 0.931625 16.3148 1.03529 17.3774 1.126C18.2197 1.20375 19.2953 1.26855 20.4615 1.26855C23.131 1.26855 25.2951 0.931625 25.2951 0.931625C28.2107 4.41747 34.703 3.73067 36.6986 9.21214C38.6942 14.6806 40.9101 17.9332 40.9101 17.9332Z" fill="#FEEB0B"/>
<mask id="mask0_1_48970" style="mask-type:alpha" maskUnits="userSpaceOnUse" x="0" y="0" width="41" height="37">
<path d="M40.9101 17.9332C38.5905 20.7971 34.3013 21.5487 33.8088 21.3543C33.3294 21.1599 31.8262 18.4127 31.7873 18.322C31.3078 28.624 32.5 34.6607 32.5 34.6607C31.8132 35.2309 30.8932 35.6196 29.8565 35.8658C28.9883 36.0861 28.0293 36.2028 27.0574 36.2675C26.2151 36.3194 25.3469 36.3323 24.5176 36.3323C23.6493 36.3194 22.807 36.2935 22.0554 36.2675C21.4593 36.2546 20.928 36.2287 20.4615 36.2287C20.3579 36.2287 20.2542 36.2287 20.1505 36.2287C19.7229 36.2287 19.2434 36.2546 18.7251 36.2675C17.9605 36.2935 17.1312 36.3194 16.25 36.3194C15.3947 36.3323 14.5136 36.3064 13.6453 36.2416C13.0492 36.2028 12.4661 36.125 11.9089 36.0343C11.1573 35.9047 10.4316 35.7233 9.8096 35.4512C9.29126 35.2438 8.81179 34.9717 8.42304 34.6477C8.42304 34.6477 9.61522 28.6111 9.13576 18.309C9.08392 18.3997 7.59369 21.134 7.11422 21.3413C6.6218 21.5357 2.33252 20.7841 0.0129395 17.9203C0.0129395 17.9203 2.22885 14.6806 4.22447 9.19918C5.97387 4.40452 11.1573 4.32676 14.384 2.05902C14.8505 1.73505 15.2651 1.35926 15.628 0.931625C15.628 0.931625 16.3148 1.03529 17.3774 1.126C18.2197 1.20375 19.2953 1.26855 20.4615 1.26855C23.131 1.26855 25.2951 0.931625 25.2951 0.931625C28.2107 4.41747 34.703 3.73067 36.6986 9.21214C38.6942 14.6806 40.9101 17.9332 40.9101 17.9332Z" fill="#E91D24"/>
</mask>
<g mask="url(#mask0_1_48970)">
<path d="M8.18453 25.4834C9.60195 38.1071 20.4518 19.9168 32.5192 16.4423L33.25 37.012L6.94226 36.9038L8.18453 25.4834Z" fill="#EDDB00"/>
</g>
<path d="M40.9101 17.9333C38.5906 20.7972 34.3013 21.5488 33.8088 21.3544C33.3294 21.16 31.8262 18.4128 31.7873 18.3221C31.7873 18.3221 33.6145 11.9076 32.2927 8.20145C31.2819 5.35056 27.0186 2.75885 20.4615 2.75885C18.129 2.75885 16.0945 3.08282 14.3969 3.62708C14.2544 3.67891 14.1119 3.71779 13.9693 3.76962C11.1055 4.78039 9.2524 6.43908 8.63039 8.20145C8.60448 8.2792 8.57856 8.35695 8.55264 8.4347C8.53968 8.47357 8.51377 8.53837 8.50081 8.61612C8.16388 9.79535 8.11205 11.1949 8.17684 12.5555C8.33235 15.536 9.13578 18.335 9.13578 18.335C9.12282 18.3739 8.86365 18.8275 8.53968 19.3847C8.33235 19.7346 8.09909 20.1233 7.86584 20.4602C7.76217 20.6028 7.67146 20.7453 7.58075 20.8749C7.38637 21.1341 7.21791 21.3155 7.10128 21.3673C6.76436 21.4969 4.67804 21.1989 2.64354 20.0844C1.68461 19.5661 0.738637 18.8663 0 17.9463C0 17.9463 0.285088 17.5316 0.751596 16.7282C1.56798 15.3157 2.94159 12.724 4.21153 9.21221C5.85726 4.68968 10.5612 4.36571 13.8009 2.43489C13.9952 2.31826 14.1896 2.20164 14.371 2.07205C14.8375 1.74809 15.2522 1.37229 15.6151 0.944656C15.6151 0.944656 16.3019 1.04832 17.3645 1.13903C18.2068 1.21679 19.2823 1.28158 20.4486 1.28158C23.118 1.28158 25.2821 0.944656 25.2821 0.944656C28.1978 4.43051 34.69 3.7437 36.6856 9.22517C38.6942 14.6807 40.9101 17.9333 40.9101 17.9333Z" fill="#E5D300"/>
<path d="M7.11422 21.3544C7.28269 21.2896 7.56777 20.9138 7.87878 20.4473C4.1208 19.5402 1.86601 17.8038 0.764536 16.7153C0.298028 17.5187 0.0129395 17.9334 0.0129395 17.9334C2.33252 20.7972 6.6218 21.5488 7.11422 21.3544Z" fill="#588E00"/>
<path d="M33.8218 21.3544C33.6533 21.2896 33.3682 20.9138 33.0572 20.4473C36.8023 19.5402 39.057 17.8038 40.1715 16.7153C40.638 17.5187 40.9231 17.9334 40.9231 17.9334C38.6035 20.7972 34.3142 21.5488 33.8218 21.3544Z" fill="#588E00"/>
<path d="M24.997 2.62923C25.1655 2.1368 25.2691 1.57958 25.295 0.931656C25.295 0.931656 23.1439 0.931649 20.4485 0.931649C17.792 0.931649 15.6021 0.931656 15.6021 0.931656C15.628 1.57958 15.7446 2.14976 15.9001 2.62923C15.9778 2.87544 16.0686 3.08278 16.1722 3.29011C17.4551 5.81703 20.4485 5.75224 20.4485 5.75224C20.4485 5.75224 22.5218 5.79712 23.957 4.3556C24.2514 4.06251 24.5194 3.7074 24.7378 3.27715C24.7359 3.27667 24.734 3.27618 24.732 3.27569C24.8327 3.07257 24.921 2.85708 24.997 2.62923Z" fill="#E5D300"/>
<path d="M25.0451 3.02824C21.1819 1.86632 19.0701 2.06034 15.873 3.09038C15.7311 2.62919 15.6264 1.54132 15.6021 0.931656C15.6021 0.931656 17.7232 0.931656 20.3797 0.931656C23.075 0.931656 25.295 0.931656 25.295 0.931656C25.2717 1.5155 25.1852 2.57274 25.0451 3.02824Z" fill="#426A00"/>
<path d="M18.5791 4.82882C16.8439 4.20679 15.8645 1.97785 15.5917 0.941132C15.3625 1.33399 14.705 1.84144 14.4049 2.04605L16.4101 7.89805L18.5791 6.13836L20.4615 5.77005L18.5791 4.82882Z" fill="#588E00"/>
<path d="M22.344 4.82882C24.0792 4.20679 25.0586 1.97785 25.3314 0.941132C25.5606 1.33399 26.2181 1.84144 26.5182 2.04605L24.513 7.89805L22.344 6.13836L20.4616 5.77005L22.344 4.82882Z" fill="#588E00"/>
</g>
<defs>
<clipPath id="clip0_1_48970">
<rect width="40.9231" height="38" fill="white"/>
</clipPath>
</defs>
</svg>
