<svg width="35" height="32" viewBox="0 0 35 32" fill="none" xmlns="http://www.w3.org/2000/svg">
<g clip-path="url(#clip0_2_437)">
<path d="M34.989 15.1017C33.0051 17.5133 29.3366 18.1463 28.9155 17.9826C28.5054 17.8189 27.2198 15.5054 27.1866 15.4291C26.7765 24.1045 27.7961 29.188 27.7961 29.188C27.2087 29.6681 26.4218 29.9955 25.5352 30.2028C24.7926 30.3883 23.9725 30.4865 23.1413 30.5411C22.4209 30.5847 21.6783 30.5957 20.969 30.5957C20.2264 30.5847 19.5061 30.5629 18.8632 30.5411C18.3534 30.5302 17.899 30.5084 17.5 30.5084C17.4114 30.5084 17.3227 30.5084 17.234 30.5084C16.8683 30.5084 16.4582 30.5302 16.0149 30.5411C15.361 30.5629 14.6517 30.5847 13.8981 30.5847C13.1666 30.5957 12.413 30.5738 11.6704 30.5193C11.1606 30.4865 10.6618 30.4211 10.1853 30.3447C9.54246 30.2355 8.92182 30.0828 8.38983 29.8536C7.94651 29.679 7.53645 29.4499 7.20396 29.177C7.20396 29.177 8.22359 24.0935 7.81352 15.4181C7.76919 15.4945 6.49465 17.7971 6.08458 17.9717C5.66342 18.1353 1.99496 17.5024 0.0111084 15.0908C0.0111084 15.0908 1.9063 12.3627 3.61307 7.74668C5.10927 3.70907 9.54246 3.6436 12.3021 1.73391C12.7011 1.4611 13.0558 1.14464 13.3661 0.784531C13.3661 0.784531 13.9535 0.87183 14.8623 0.948218C15.5827 1.01369 16.5026 1.06825 17.5 1.06825C19.7831 1.06825 21.634 0.784531 21.634 0.784531C24.1276 3.71998 29.6802 3.14162 31.387 7.75759C33.0938 12.3627 34.989 15.1017 34.989 15.1017Z" fill="url(#paint0_linear_2_437)"/>
<mask id="mask0_2_437" style="mask-type:alpha" maskUnits="userSpaceOnUse" x="0" y="0" width="35" height="31">
<path d="M34.989 15.1017C33.0051 17.5133 29.3366 18.1463 28.9155 17.9826C28.5054 17.8189 27.2198 15.5054 27.1866 15.4291C26.7765 24.1045 27.7961 29.188 27.7961 29.188C27.2087 29.6681 26.4218 29.9955 25.5352 30.2028C24.7926 30.3883 23.9725 30.4865 23.1413 30.5411C22.4209 30.5847 21.6783 30.5957 20.969 30.5957C20.2264 30.5847 19.5061 30.5629 18.8632 30.5411C18.3534 30.5302 17.899 30.5084 17.5 30.5084C17.4114 30.5084 17.3227 30.5084 17.234 30.5084C16.8683 30.5084 16.4582 30.5302 16.0149 30.5411C15.361 30.5629 14.6517 30.5847 13.8981 30.5847C13.1666 30.5957 12.413 30.5738 11.6704 30.5193C11.1606 30.4865 10.6618 30.4211 10.1853 30.3447C9.54246 30.2355 8.92182 30.0828 8.38983 29.8536C7.94651 29.679 7.53645 29.4499 7.20396 29.177C7.20396 29.177 8.22359 24.0935 7.81352 15.4181C7.76919 15.4945 6.49465 17.7971 6.08458 17.9717C5.66342 18.1353 1.99496 17.5024 0.0111084 15.0908C0.0111084 15.0908 1.9063 12.3627 3.61307 7.74668C5.10927 3.70907 9.54246 3.6436 12.3021 1.73391C12.7011 1.4611 13.0558 1.14464 13.3661 0.784531C13.3661 0.784531 13.9535 0.87183 14.8623 0.948218C15.5827 1.01369 16.5026 1.06825 17.5 1.06825C19.7831 1.06825 21.634 0.784531 21.634 0.784531C24.1276 3.71998 29.6802 3.14162 31.387 7.75759C33.0938 12.3627 34.989 15.1017 34.989 15.1017Z" fill="#E91D24"/>
</mask>
<g mask="url(#mask0_2_437)">
<path d="M6.99997 21.4597C8.21224 32.0902 17.4917 16.7721 27.8125 13.8461L28.4375 31.168L5.9375 31.0769L6.99997 21.4597Z" fill="#770606"/>
<rect x="13.75" y="3.99995" width="7.5" height="48" fill="#FBA12C"/>
</g>
<path d="M34.9889 15.1018C33.0051 17.5134 29.3366 18.1463 28.9155 17.9826C28.5054 17.819 27.2198 15.5055 27.1865 15.4291C27.1865 15.4291 28.7492 10.0275 27.6188 6.9065C26.7543 4.50576 23.108 2.32326 17.5 2.32326C15.5051 2.32326 13.765 2.59607 12.3132 3.0544C12.1913 3.09805 12.0694 3.13078 11.9474 3.17443C9.49811 4.02561 7.91324 5.4224 7.38126 6.9065C7.35909 6.97197 7.33693 7.03745 7.31476 7.10292C7.30368 7.13566 7.28151 7.19022 7.27043 7.2557C6.98227 8.24873 6.93794 9.42728 6.99335 10.5731C7.12635 13.083 7.8135 15.44 7.8135 15.44C7.80241 15.4728 7.58075 15.8547 7.30368 16.324C7.12635 16.6186 6.92686 16.946 6.72736 17.2297C6.6387 17.3497 6.56112 17.4698 6.48354 17.5789C6.31729 17.7971 6.17321 17.9499 6.07347 17.9936C5.78531 18.1027 4.00095 17.8517 2.26093 16.9132C1.44079 16.4767 0.631729 15.8875 0 15.1127C0 15.1127 0.243826 14.7635 0.642813 14.0869C1.34104 12.8974 2.51584 10.7149 3.60197 7.75767C5.0095 3.94922 9.03262 3.67641 11.8034 2.05045C11.9696 1.95224 12.1359 1.85403 12.291 1.7449C12.69 1.47209 13.0447 1.15563 13.355 0.795517C13.355 0.795517 13.9424 0.882817 14.8512 0.959204C15.5716 1.02468 16.4915 1.07924 17.4889 1.07924C19.772 1.07924 21.6229 0.795517 21.6229 0.795517C24.1165 3.73097 29.6691 3.15261 31.3759 7.76858C33.0938 12.3627 34.9889 15.1018 34.9889 15.1018Z" fill="#770606"/>
<path d="M6.08458 17.9827C6.22865 17.9281 6.47248 17.6117 6.73847 17.2188C3.52441 16.4549 1.59597 14.9927 0.653921 14.076C0.254934 14.7526 0.0111084 15.1018 0.0111084 15.1018C1.99496 17.5135 5.66342 18.1464 6.08458 17.9827Z" fill="#FBA12C"/>
<path d="M28.9266 17.9827C28.7825 17.9281 28.5387 17.6117 28.2727 17.2188C31.4757 16.4549 33.4041 14.9927 34.3572 14.076C34.7562 14.7526 35 15.1018 35 15.1018C33.0162 17.5135 29.3477 18.1464 28.9266 17.9827Z" fill="#FBA12C"/>
<path d="M21.379 2.21409C21.5231 1.79942 21.6118 1.33018 21.6339 0.784561C21.6339 0.784561 19.7942 0.784556 17.4889 0.784556C15.2169 0.784556 13.3439 0.784561 13.3439 0.784561C13.366 1.33018 13.4658 1.81033 13.5988 2.21409C13.6653 2.42143 13.7429 2.59603 13.8315 2.77063C14.9287 4.89856 17.4889 4.844 17.4889 4.844C17.4889 4.844 19.2621 4.88179 20.4895 3.66789C20.7413 3.42107 20.9705 3.12203 21.1574 2.75972C21.1557 2.75931 21.1541 2.75889 21.1524 2.75848C21.2385 2.58743 21.3141 2.40597 21.379 2.21409Z" fill="#770606"/>
<path d="M21.4201 2.55011C18.1161 1.57165 16.31 1.73503 13.5756 2.60243C13.4543 2.21406 13.3647 1.29796 13.3439 0.784561C13.3439 0.784561 15.158 0.784561 17.43 0.784561C19.7352 0.784561 21.6339 0.784561 21.6339 0.784561C21.614 1.27622 21.54 2.16653 21.4201 2.55011Z" fill="#D69D00"/>
<path d="M15.8899 4.06639C14.4059 3.54257 13.5683 1.66557 13.3349 0.792542C13.1389 1.12337 12.5766 1.5507 12.3199 1.723L14.0349 6.651L15.8899 5.16916L17.4999 4.859L15.8899 4.06639Z" fill="#DB7C00"/>
<path d="M19.1099 4.06639C20.5939 3.54257 21.4316 1.66557 21.6649 0.792542C21.8609 1.12337 22.4233 1.5507 22.6799 1.723L20.9649 6.651L19.1099 5.16916L17.4999 4.859L19.1099 4.06639Z" fill="#DB7C00"/>
</g>
<defs>
<linearGradient id="paint0_linear_2_437" x1="17.5" y1="0.784531" x2="17.5" y2="30.5957" gradientUnits="userSpaceOnUse">
<stop stop-color="#9E1111"/>
<stop offset="1" stop-color="#800808"/>
</linearGradient>
<clipPath id="clip0_2_437">
<rect width="35" height="32" fill="white"/>
</clipPath>
</defs>
</svg>
