<svg width="22" height="22" viewBox="0 0 22 22" fill="none" xmlns="http://www.w3.org/2000/svg">
<path fill-rule="evenodd" clip-rule="evenodd" d="M8.82583 19.8153L0.452055 11.9508C0.150685 11.6718 0 11.3617 0 11C0.0107632 10.6383 0.150685 10.3076 0.452055 10.0389L8.82583 2.18472C9.06262 1.95736 9.36399 1.83334 9.71918 1.83334C10.4296 1.83334 11 2.37074 11 3.05281C11 3.38351 10.8493 3.70388 10.6018 3.94157L3.06751 10.9897L10.6018 18.0584C10.8493 18.2961 11 18.6062 11 18.9472C11 19.6293 10.4296 20.1667 9.71918 20.1667C9.36399 20.1667 9.06262 20.0427 8.82583 19.8153Z" fill="white"/>
</svg>
