<svg width="15" height="15" viewBox="0 0 15 15" fill="none" xmlns="http://www.w3.org/2000/svg">
<circle cx="7.5" cy="7.5" r="7.5" fill="#ED0000"/>
<path d="M6.66 10.9814C6.65982 11.1559 6.71903 11.3258 6.82868 11.4653C6.93833 11.6047 7.09246 11.7063 7.26776 11.7545C7.44305 11.8027 7.62998 11.7949 7.80028 11.7324C7.97058 11.6699 8.11498 11.5561 8.21164 11.4081L10.4686 9.24824C10.5465 9.17359 10.6084 9.08497 10.6505 8.98745C10.6927 8.88993 10.7144 8.78542 10.7143 8.67988C10.7143 8.57434 10.6925 8.46984 10.6503 8.37235C10.6081 8.27486 10.5462 8.18628 10.4682 8.11168C10.3901 8.03708 10.2975 7.97792 10.1956 7.93756C10.0937 7.89721 9.98452 7.87646 9.87424 7.8765C9.76395 7.87653 9.65476 7.89736 9.55288 7.93778C9.45101 7.9782 9.35845 8.03743 9.28049 8.11209L8.34011 9.01281V2.94636C8.34011 2.73325 8.25164 2.52888 8.09418 2.37819C7.93672 2.22751 7.72316 2.14285 7.50047 2.14285C7.27779 2.14285 7.06422 2.22751 6.90676 2.37819C6.7493 2.52888 6.66084 2.73325 6.66084 2.94636L6.66 10.9814Z" fill="white"/>
<path d="M8.34011 10.9813C8.34029 11.1559 8.28108 11.3257 8.17143 11.4652C8.06177 11.6047 7.90765 11.7062 7.73235 11.7544C7.55705 11.8026 7.37012 11.7949 7.19983 11.7324C7.02953 11.6699 6.88513 11.556 6.78846 11.408L4.53153 9.24817C4.37409 9.0974 4.28569 8.89296 4.28577 8.67981C4.28585 8.46667 4.3744 8.26228 4.53195 8.11162C4.6895 7.96095 4.90314 7.87635 5.12587 7.87643C5.3486 7.8765 5.56217 7.96125 5.71961 8.11202L6.66 9.01275L6.66084 2.94636C6.66084 2.73325 6.7493 2.52888 6.90676 2.37819C7.06422 2.22751 7.27779 2.14285 7.50047 2.14285C7.72316 2.14285 7.93672 2.22751 8.09418 2.37819C8.25164 2.52888 8.34011 2.73325 8.34011 2.94636L8.34011 10.9813Z" fill="white"/>
</svg>
