<svg width="14" height="14" viewBox="0 0 14 14" fill="none" xmlns="http://www.w3.org/2000/svg">
<circle cx="7" cy="7" r="7" fill="#ED0000"/>
<path d="M6.21595 10.2493C6.21578 10.4122 6.27104 10.5707 6.37339 10.7009C6.47573 10.8311 6.61958 10.9258 6.78319 10.9708C6.9468 11.0158 7.12127 11.0086 7.28021 10.9503C7.43916 10.8919 7.57393 10.7857 7.66415 10.6475L9.77062 8.63169C9.84338 8.56202 9.90108 8.47931 9.94044 8.38829C9.9798 8.29727 10 8.19973 10 8.10122C9.99996 8.00272 9.97965 7.90519 9.94023 7.8142C9.90081 7.72321 9.84304 7.64054 9.77023 7.57091C9.69742 7.50128 9.61099 7.44606 9.51588 7.4084C9.42077 7.37073 9.31884 7.35137 9.21591 7.3514C9.11298 7.35144 9.01106 7.37087 8.91597 7.4086C8.82089 7.44633 8.7345 7.50161 8.66175 7.57128L7.78405 8.41196V2.74994C7.78405 2.55104 7.70149 2.36029 7.55452 2.21965C7.40756 2.07901 7.20823 2 7.00039 2C6.79255 2 6.59323 2.07901 6.44626 2.21965C6.2993 2.36029 6.21673 2.55104 6.21673 2.74994L6.21595 10.2493Z" fill="white"/>
<path d="M7.78405 10.2492C7.78422 10.4122 7.72896 10.5707 7.62662 10.7009C7.52427 10.831 7.38042 10.9258 7.21681 10.9708C7.0532 11.0158 6.87873 11.0086 6.71979 10.9502C6.56085 10.8919 6.42607 10.7856 6.33585 10.6475L4.22938 8.63163C4.08244 8.49091 3.99993 8.3001 4 8.10116C4.00007 7.90223 4.08272 7.71146 4.22977 7.57085C4.37682 7.43023 4.57621 7.35127 4.78409 7.35134C4.99197 7.35141 5.19131 7.4305 5.33825 7.57122L6.21595 8.4119L6.21673 2.74994C6.21673 2.55104 6.2993 2.36029 6.44626 2.21965C6.59323 2.07901 6.79255 2 7.00039 2C7.20823 2 7.40756 2.07901 7.55452 2.21965C7.70149 2.36029 7.78405 2.55104 7.78405 2.74994L7.78405 10.2492Z" fill="white"/>
</svg>
