<svg width="32" height="32" viewBox="0 0 32 32" fill="none" xmlns="http://www.w3.org/2000/svg">
<rect x="0.5" y="0.5" width="31" height="31" rx="5.5" fill="#B4033A" fill-opacity="0.2"/>
<path d="M10.9403 12.2463C12.0724 10.8793 13.8355 10.0001 15.8152 10.0001C19.2316 10.0001 21.9954 12.607 22 15.8331C22.0046 19.0635 19.2347 21.6835 15.8152 21.6835C13.8788 21.6835 12.1513 20.8438 11.0177 19.5279C10.9744 19.4768 10.9836 19.4023 11.0378 19.3614L11.8188 18.786C11.8714 18.7466 11.9472 18.7554 11.9905 18.8036C12.0925 18.9218 12.2023 19.0358 12.3183 19.1453C12.769 19.5723 13.3032 19.9125 13.8912 20.1471C14.499 20.3925 15.1471 20.5152 15.8152 20.5152C16.4833 20.5152 17.1313 20.3925 17.7407 20.1486C18.3299 19.9135 18.8589 19.5761 19.3136 19.1468C19.7683 18.7174 20.1255 18.2179 20.3745 17.6615C20.6328 17.0846 20.7627 16.4727 20.7627 15.8418C20.7627 15.2109 20.6328 14.599 20.3745 14.0236C20.1255 13.4672 19.7683 12.9677 19.3136 12.5383C18.8589 12.109 18.3299 11.7716 17.7407 11.5365C17.1313 11.2926 16.4833 11.1699 15.8152 11.1699C15.1471 11.1699 14.499 11.2926 13.8897 11.5365C13.3016 11.7711 12.7674 12.1113 12.3168 12.5383C12.173 12.6742 12.0384 12.8173 11.9147 12.9662L12.7205 13.5606C12.7389 13.5741 12.7529 13.5922 12.7609 13.6128C12.7689 13.6335 12.7706 13.6558 12.7658 13.6774C12.7609 13.6989 12.7497 13.7187 12.7335 13.7344C12.7173 13.7502 12.6967 13.7613 12.6741 13.7666L10.1655 14.3449C10.0882 14.3624 10.0124 14.3069 10.0124 14.2324L10 11.7935C10 11.6957 10.1191 11.6402 10.1995 11.7015L10.9403 12.2463Z" fill="white"/>
<rect x="0.5" y="0.5" width="31" height="31" rx="5.5" stroke="#B4033A"/>
</svg>
