<svg width="24" height="24" viewBox="0 0 24 24" fill="none" xmlns="http://www.w3.org/2000/svg">
<path fill-rule="evenodd" clip-rule="evenodd" d="M12 7.9918C10.3441 7.9918 9.00171 6.64944 9.00171 4.99355C9.00171 3.33766 10.3441 1.9953 12 1.9953C13.6558 1.9953 14.9982 3.33766 14.9982 4.99355C14.9982 6.64944 13.6558 7.9918 12 7.9918Z" fill="white"/>
<path fill-rule="evenodd" clip-rule="evenodd" d="M9.00171 18.9965C9.00171 20.6524 10.3441 21.9947 12 21.9947C13.6558 21.9947 14.9982 20.6524 14.9982 18.9965C14.9982 17.3406 13.6558 15.9982 12 15.9982C10.3441 15.9982 9.00171 17.3406 9.00171 18.9965Z" fill="white"/>
<path d="M9.00171 11.995C9.00171 13.6509 10.3441 14.9933 12 14.9933C13.6558 14.9933 14.9982 13.6509 14.9982 11.995C14.9982 10.3391 13.6558 8.99677 12 8.99677C10.3441 8.99677 9.00171 10.3391 9.00171 11.995Z" fill="white"/>
</svg>
