<svg width="34" height="6" viewBox="0 0 34 6" fill="none" xmlns="http://www.w3.org/2000/svg">
<path fill-rule="evenodd" clip-rule="evenodd" d="M28 2.75C28 4.26878 29.2312 5.5 30.75 5.5C32.2688 5.5 33.5 4.26878 33.5 2.75C33.5 1.23122 32.2688 0 30.75 0C29.2312 0 28 1.23122 28 2.75ZM33 2.75C33 3.99264 31.9926 5 30.75 5C29.5074 5 28.5 3.99264 28.5 2.75C28.5 1.50736 29.5074 0.5 30.75 0.5C31.9926 0.5 33 1.50736 33 2.75Z" fill="white"/>
<path fill-rule="evenodd" clip-rule="evenodd" d="M21 2.75C21 4.26878 22.2312 5.5 23.75 5.5C25.2688 5.5 26.5 4.26878 26.5 2.75C26.5 1.23122 25.2688 0 23.75 0C22.2312 0 21 1.23122 21 2.75ZM26 2.75C26 3.99264 24.9926 5 23.75 5C22.5074 5 21.5 3.99264 21.5 2.75C21.5 1.50736 22.5074 0.5 23.75 0.5C24.9926 0.5 26 1.50736 26 2.75Z" fill="white"/>
<path fill-rule="evenodd" clip-rule="evenodd" d="M16.75 5.5C18.2688 5.5 19.5 4.26878 19.5 2.75C19.5 1.23122 18.2688 0 16.75 0C15.2312 0 14 1.23122 14 2.75C14 4.26878 15.2312 5.5 16.75 5.5Z" fill="white"/>
<path fill-rule="evenodd" clip-rule="evenodd" d="M9.75 5.5C11.2688 5.5 12.5 4.26878 12.5 2.75C12.5 1.23122 11.2688 0 9.75 0C8.23122 0 7 1.23122 7 2.75C7 4.26878 8.23122 5.5 9.75 5.5Z" fill="white"/>
<path fill-rule="evenodd" clip-rule="evenodd" d="M2.75 5.5C4.26878 5.5 5.5 4.26878 5.5 2.75C5.5 1.23122 4.26878 0 2.75 0C1.23122 0 0 1.23122 0 2.75C0 4.26878 1.23122 5.5 2.75 5.5Z" fill="white"/>
</svg>
