<svg width="14" height="14" viewBox="0 0 14 14" fill="none" xmlns="http://www.w3.org/2000/svg">
<rect width="14" height="14" rx="7" fill="#FF8A00"/>
<path fill-rule="evenodd" clip-rule="evenodd" d="M7.73407 2.6633L11.0039 8.01691C11.538 8.89041 10.8618 10 9.78398 10H3.25387C2.17608 10 1.51135 8.90131 2.04544 8.01691L5.31722 2.6633C5.84939 1.7789 7.19998 1.7789 7.73407 2.6633ZM6.00314 8.32019C6.00314 8.58896 6.23945 8.81233 6.52378 8.81233C6.79659 8.81233 7.04634 8.58896 7.0329 8.3329C7.04442 8.05142 6.80812 7.82805 6.52378 7.82805C6.23945 7.82805 6.00314 8.05142 6.00314 8.32019ZM6.96277 6.20181C6.97478 6.01158 6.98679 5.82135 6.99832 5.63067C7.00402 5.50931 7.01302 5.38751 7.02206 5.26526C7.03127 5.14055 7.04052 5.01538 7.04634 4.88974C7.04634 4.79894 7.03482 4.72085 6.99832 4.64276C6.89073 4.41939 6.6429 4.3068 6.39314 4.36309C6.14339 4.43029 5.98969 4.64276 5.98969 4.90063C6.00232 5.04725 6.01325 5.19548 6.02408 5.34229L6.02619 5.37098C6.04349 5.6679 6.06126 5.96209 6.07903 6.25629C6.0968 6.55048 6.11457 6.84468 6.13186 7.1416C6.14531 7.34317 6.31053 7.48846 6.52378 7.48846C6.73703 7.48846 6.90418 7.33228 6.9157 7.1307C6.9157 7.00904 6.9157 6.89643 6.92723 6.77294C6.93876 6.58226 6.95077 6.39204 6.96277 6.20181Z" fill="white"/>
</svg>
