<svg width="15" height="15" viewBox="0 0 15 15" fill="none" xmlns="http://www.w3.org/2000/svg">
<rect width="15" height="15" rx="7.5" fill="#FF8A00"/>
<path fill-rule="evenodd" clip-rule="evenodd" d="M8.73407 3.6633L12.0039 9.01691C12.538 9.89041 11.8618 11 10.784 11H4.25387C3.17608 11 2.51135 9.90131 3.04544 9.01691L6.31722 3.6633C6.84939 2.7789 8.19998 2.7789 8.73407 3.6633ZM7.00314 9.32019C7.00314 9.58896 7.23945 9.81233 7.52378 9.81233C7.79659 9.81233 8.04634 9.58896 8.0329 9.3329C8.04442 9.05142 7.80812 8.82805 7.52378 8.82805C7.23945 8.82805 7.00314 9.05142 7.00314 9.32019ZM7.96277 7.20181C7.97478 7.01158 7.98679 6.82135 7.99832 6.63067C8.00402 6.50931 8.01302 6.38751 8.02206 6.26526C8.03127 6.14055 8.04052 6.01538 8.04634 5.88974C8.04634 5.79894 8.03482 5.72085 7.99832 5.64276C7.89073 5.41939 7.6429 5.3068 7.39314 5.36309C7.14339 5.43029 6.98969 5.64276 6.98969 5.90063C7.00232 6.04725 7.01325 6.19548 7.02408 6.34229L7.02619 6.37098C7.04349 6.6679 7.06126 6.96209 7.07903 7.25629C7.0968 7.55048 7.11457 7.84468 7.13186 8.1416C7.14531 8.34317 7.31053 8.48846 7.52378 8.48846C7.73703 8.48846 7.90418 8.33228 7.9157 8.1307C7.9157 8.00904 7.9157 7.89643 7.92723 7.77294C7.93876 7.58226 7.95077 7.39204 7.96277 7.20181Z" fill="white"/>
</svg>
