<svg width="9" height="14" viewBox="0 0 9 14" fill="none" xmlns="http://www.w3.org/2000/svg">
<path fill-rule="evenodd" clip-rule="evenodd" d="M2.06008 13.7317L8.4546 7.72604C8.68474 7.51297 8.7998 7.27621 8.7998 7C8.79159 6.72379 8.68474 6.47125 8.4546 6.26607L2.06008 0.26832C1.87926 0.0947012 1.64912 0 1.37789 0C0.835422 0 0.399805 0.410372 0.399805 0.931229C0.399805 1.18377 0.514874 1.42841 0.703915 1.60992L6.45734 6.99211L0.703915 12.3901C0.514874 12.5716 0.399805 12.8083 0.399805 13.0688C0.399805 13.5896 0.835422 14 1.37789 14C1.64912 14 1.87926 13.9053 2.06008 13.7317Z" fill="#FFD037"/>
</svg>
