<svg width="11" height="6" viewBox="0 0 11 6" fill="none" xmlns="http://www.w3.org/2000/svg">
<path fill-rule="evenodd" clip-rule="evenodd" d="M0.210823 1.18591L4.92954 5.75342C5.09696 5.91781 5.28298 6 5.5 6C5.71702 5.99413 5.91545 5.91781 6.07666 5.75342L10.7892 1.18591C10.9256 1.05675 11 0.892368 11 0.69863C11 0.311155 10.6776 -1.78887e-08 10.2683 0C10.0699 8.67329e-09 9.87768 0.0821918 9.73506 0.217221L5.5062 4.32681L1.26494 0.217221C1.12232 0.0821922 0.936302 4.07915e-07 0.73168 4.1686e-07C0.322435 4.34748e-07 -1.69371e-08 0.311155 0 0.698631C8.46855e-09 0.892368 0.0744081 1.05675 0.210823 1.18591Z" fill="#FFD037"/>
</svg>
