<svg width="48" height="48" viewBox="0 0 48 48" fill="none" xmlns="http://www.w3.org/2000/svg">
<circle cx="24" cy="24" r="11.5" fill="#FFD037" fill-opacity="0.3" stroke="#FFD037"/>
<path d="M24.7555 24.7557L29.8837 24.7556C30.0248 24.7555 30.1579 24.7003 30.2584 24.6C30.3589 24.4995 30.4143 24.3663 30.4141 24.2252L30.414 23.7759C30.4141 23.6345 30.3587 23.5015 30.2582 23.401C30.1578 23.3007 30.0249 23.2452 29.8835 23.2454L24.7555 23.2453L24.7554 18.1172C24.7556 17.9759 24.7001 17.8429 24.5996 17.7425C24.4993 17.6421 24.3663 17.5866 24.225 17.5868L23.7756 17.5867C23.483 17.5867 23.245 17.8246 23.2452 18.1171L23.2451 23.2453L18.117 23.2452C17.9757 23.2454 17.8427 23.3007 17.7423 23.4011C17.6419 23.5015 17.5866 23.6345 17.5865 23.7757L17.5866 24.2251C17.5865 24.3664 17.6419 24.4994 17.7422 24.5997C17.8427 24.7002 17.9757 24.7556 18.117 24.7555L23.2451 24.7556L23.2451 29.8836C23.2451 30.025 23.3004 30.1579 23.4008 30.2583L23.4009 30.2584C23.5013 30.3588 23.6343 30.4142 23.7756 30.4141L24.225 30.4142C24.3661 30.4141 24.4992 30.3588 24.5996 30.2584C24.7001 30.158 24.7553 30.0249 24.7554 29.8837L24.7555 24.7557Z" fill="#FFD037"/>
</svg>
