<svg width="48" height="48" viewBox="0 0 48 48" fill="none" xmlns="http://www.w3.org/2000/svg">
<circle cx="24" cy="24" r="11.5" fill="#590320" fill-opacity="0.3" stroke="white"/>
<path d="M29.8839 24.7555L24.7557 24.7556L23.2454 24.7555L18.1172 24.7554C17.976 24.7556 17.8429 24.7002 17.7425 24.5997C17.6422 24.4994 17.5867 24.3663 17.5868 24.2251L17.5867 23.7757C17.5868 23.6345 17.6421 23.5015 17.7425 23.401C17.8429 23.3006 17.976 23.2453 18.1172 23.2452L23.2454 23.2453L24.7557 23.2453L29.8837 23.2453C30.0251 23.2452 30.1581 23.3006 30.2584 23.401C30.3589 23.5015 30.4144 23.6344 30.4142 23.7758L30.4143 24.2251C30.4145 24.3663 30.3591 24.4995 30.2586 24.5999C30.1581 24.7002 30.025 24.7555 29.8839 24.7555Z" fill="white"/>
</svg>
